<?xml version="1.0" encoding="UTF-8" standalone="no" ?>
<!DOCTYPE svg PUBLIC "-//W3C//DTD SVG 1.1//EN" "http://www.w3.org/Graphics/SVG/1.1/DTD/svg11.dtd">
<svg xmlns="http://www.w3.org/2000/svg" xmlns:xlink="http://www.w3.org/1999/xlink" version="1.1" width="1280" height="1024" viewBox="0 0 1280 1024" xml:space="preserve">
<desc>Created with Fabric.js 5.3.0</desc>
<defs>
</defs>
<g transform="matrix(1 0 0 1 640 512)" id="background-logo"  >
<rect style="stroke: none; stroke-width: 0; stroke-dasharray: none; stroke-linecap: butt; stroke-dashoffset: 0; stroke-linejoin: miter; stroke-miterlimit: 4; fill: rgb(255,255,255); fill-opacity: 0; fill-rule: nonzero; opacity: 1;"  paint-order="stroke"  x="-640" y="-512" rx="0" ry="0" width="1280" height="1024" />
</g>
<g transform="matrix(1.9211538461538462 0 0 1.9211538461538462 640 402.8413469160976)" id="logo-logo"  >
<g style=""  paint-order="stroke"   >
		<g transform="matrix(1.167891860536903 0 0 -1.167891860536903 -58.30816902916541 -16.199244051577125)"  >
<linearGradient id="SVGID_2_222989" gradientUnits="userSpaceOnUse" gradientTransform="matrix(-176.45468 -176.45468 -176.45468 176.45468 216.18848 255.56885)"  x1="0" y1="0" x2="1" y2="0">
<stop offset="0%" style="stop-color:rgb(45,194,235);stop-opacity: 1"/>
<stop offset="100%" style="stop-color:rgb(54,197,236);stop-opacity: 1"/>
</linearGradient>
<path style="stroke: none; stroke-width: 1; stroke-dasharray: none; stroke-linecap: butt; stroke-dashoffset: 0; stroke-linejoin: miter; stroke-miterlimit: 4; fill: url(#SVGID_2_222989); fill-rule: nonzero; opacity: 1;"  paint-order="stroke"  transform=" translate(-111.70849999999999, -142.691)" d="M 92.817 188.928 L 86.49699999999999 187.475 L 86.49699999999999 181.001 C 86.49699999999999 157.399 87.90699999999998 138.001 91.38499999999999 121.46300000000001 L 91.38499999999999 121.46300000000001 C 91.84799999999998 119.286 92.33399999999999 117.149 92.88399999999999 115.08000000000001 L 92.88399999999999 115.08000000000001 C 94.42399999999999 109.00400000000002 96.29599999999999 103.34400000000001 98.52099999999999 98.01400000000001 L 98.52099999999999 98.01400000000001 C 99.26799999999999 96.21100000000001 100.06099999999999 94.45100000000001 100.89599999999999 92.70800000000001 L 100.89599999999999 92.70800000000001 C 100.96399999999998 92.55300000000001 101.02899999999998 92.4 101.09599999999999 92.27000000000001 L 101.09599999999999 92.27000000000001 C 106.55599999999998 93.501 112.017 94.51400000000001 117.54399999999998 95.328 L 117.54399999999998 95.328 C 115.95899999999999 98.28 114.52699999999999 101.384 113.20599999999999 104.66300000000001 L 113.20599999999999 104.66300000000001 C 112.457 106.53800000000001 111.75299999999999 108.47300000000001 111.09199999999998 110.45700000000001 L 111.09199999999998 110.45700000000001 C 109.15399999999998 116.289 107.56999999999998 122.65200000000002 106.33699999999999 129.72 L 106.33699999999999 129.72 C 105.91799999999999 132.099 105.52099999999999 134.544 105.19099999999999 137.077 L 105.19099999999999 137.077 C 103.826 147.05 103.05499999999999 158.324 102.81299999999999 171.182 L 102.81299999999999 171.182 L 102.76899999999999 174.131 L 105.69699999999999 174.464 C 112.36999999999999 175.212 121.06599999999999 175.894 129.808 176.422 L 129.808 176.422 C 132.428 181.884 134.80599999999998 187.453 136.92 193.112 L 136.92 193.112 C 120.142 192.233 100.89599999999999 190.777 92.81699999999998 188.928" stroke-linecap="round" />
</g>
		<g transform="matrix(1.167891860536903 0 0 -1.167891860536903 9.953358381425858 73.85339363884191)"  >
<linearGradient id="SVGID_3_222990" gradientUnits="userSpaceOnUse" gradientTransform="matrix(-176.45828 -176.45828 -176.45828 176.45828 283.77441 187.9873)"  x1="0" y1="0" x2="1" y2="0">
<stop offset="0%" style="stop-color:rgb(45,194,235);stop-opacity: 1"/>
<stop offset="100%" style="stop-color:rgb(54,197,236);stop-opacity: 1"/>
</linearGradient>
<path style="stroke: none; stroke-width: 1; stroke-dasharray: none; stroke-linecap: butt; stroke-dashoffset: 0; stroke-linejoin: miter; stroke-miterlimit: 4; fill: url(#SVGID_3_222990); fill-rule: nonzero; opacity: 1;"  paint-order="stroke"  transform=" translate(-170.157, -65.58399999999999)" d="M 206.716 91.059 C 205.725 89.383 204.669 87.752 203.54600000000002 86.17099999999999 L 203.54600000000002 86.17099999999999 C 200.00100000000003 81.148 195.97100000000003 76.52799999999999 191.41400000000002 72.142 L 191.41400000000002 72.142 C 189.78600000000003 70.556 188.068 68.99499999999999 186.28300000000002 67.478 L 186.28300000000002 67.478 C 180.118 62.126 173.096 56.997 165.169 51.712 L 165.169 51.712 L 163.363 50.5 L 161.557 51.712 C 152.355 57.855000000000004 144.361 63.779 137.49099999999999 70.096 L 137.49099999999999 70.096 C 130.79799999999997 69.635 124.14899999999999 68.863 117.54399999999998 67.74000000000001 L 117.54399999999998 67.74000000000001 C 127.958 55.958 141.522 45.215 158.96 33.986 L 158.96 33.986 L 163.363 31.169999999999998 L 167.746 33.986 C 182.959 43.762 195.22400000000002 53.187 205.02100000000002 63.272 L 205.02100000000002 63.272 C 206.473 64.769 207.88400000000001 66.288 209.25000000000003 67.83 L 209.25000000000003 67.83 C 213.16900000000004 72.277 216.64600000000002 76.855 219.70800000000003 81.67999999999999 L 219.70800000000003 81.67999999999999 C 220.72000000000003 83.264 221.66900000000004 84.869 222.59100000000004 86.523 L 222.59100000000004 86.523 C 222.65800000000004 86.61 222.72600000000003 86.696 222.77000000000004 86.80799999999999 L 222.77000000000004 86.80799999999999 C 218.82600000000005 91.079 215.06000000000003 95.48499999999999 211.49600000000004 99.99799999999999 L 211.49600000000004 99.99799999999999 C 210.06500000000003 96.86999999999999 208.48000000000005 93.898 206.71600000000004 91.059" stroke-linecap="round" />
</g>
		<g transform="matrix(1.167891860536903 0 0 -1.167891860536903 45.10339970800504 -30.35642918500548)"  >
<linearGradient id="SVGID_4_222991" gradientUnits="userSpaceOnUse" gradientTransform="matrix(-176.46085 -176.46085 -176.46085 176.46085 258.49805 213.26318)"  x1="0" y1="0" x2="1" y2="0">
<stop offset="0%" style="stop-color:rgb(45,194,235);stop-opacity: 1"/>
<stop offset="100%" style="stop-color:rgb(54,197,236);stop-opacity: 1"/>
</linearGradient>
<path style="stroke: none; stroke-width: 1; stroke-dasharray: none; stroke-linecap: butt; stroke-dashoffset: 0; stroke-linejoin: miter; stroke-miterlimit: 4; fill: url(#SVGID_4_222991); fill-rule: nonzero; opacity: 1;"  paint-order="stroke"  transform=" translate(-200.254, -154.813)" d="M 160.302 177.721 C 161.427 177.76500000000001 162.45999999999998 177.76500000000001 163.363 177.76500000000001 L 163.363 177.76500000000001 C 165.411 177.76500000000001 168.098 177.721 171.223 177.63400000000001 L 171.223 177.63400000000001 C 173.031 177.567 174.967 177.50300000000001 177.037 177.436 L 177.037 177.436 C 182.344 177.215 188.375 176.92700000000002 194.453 176.576 L 194.453 176.576 C 196.45600000000002 176.46699999999998 198.462 176.33499999999998 200.439 176.202 L 200.439 176.202 C 207.971 175.693 215.262 175.101 221.00799999999998 174.464 L 221.00799999999998 174.464 L 223.93699999999998 174.131 L 223.89299999999997 171.182 C 223.628 156.87099999999998 222.70299999999997 144.51899999999998 221.05199999999996 133.731 L 221.05199999999996 133.731 C 225.01499999999996 127.47699999999999 229.32899999999995 121.443 233.97699999999998 115.65299999999999 L 233.97699999999998 115.65299999999999 C 238.44599999999997 133.421 240.206 154.559 240.206 181.00099999999998 L 240.206 181.00099999999998 L 240.206 187.47499999999997 L 233.91 188.92799999999997 C 226.68699999999998 190.58099999999996 210.68099999999998 191.90099999999998 195.401 192.78299999999996 L 195.401 192.78299999999996 C 193.46200000000002 192.91399999999996 191.524 193.00099999999995 189.63000000000002 193.11199999999997 L 189.63000000000002 193.11199999999997 C 183.42300000000003 193.41999999999996 177.54300000000003 193.65999999999997 172.72100000000003 193.81699999999998 L 172.72100000000003 193.81699999999998 C 170.62900000000002 193.88299999999998 168.71300000000002 193.92799999999997 167.06400000000002 193.94499999999996 L 167.06400000000002 193.94499999999996 C 166.73200000000003 193.94499999999996 166.42200000000003 193.97299999999996 166.115 193.97299999999996 L 166.115 193.97299999999996 C 164.376 188.46399999999994 162.43900000000002 183.02899999999997 160.30200000000002 177.72099999999995" stroke-linecap="round" />
</g>
		<g transform="matrix(1.167891860536903 0 0 -1.167891860536903 65.91932028428442 17.538232069682692)"  >
<linearGradient id="SVGID_5_222992" gradientUnits="userSpaceOnUse" gradientTransform="matrix(-176.45251 -176.45251 -176.45251 176.45251 283.98047 187.77588)"  x1="0" y1="0" x2="1" y2="0">
<stop offset="0%" style="stop-color:rgb(45,194,235);stop-opacity: 1"/>
<stop offset="100%" style="stop-color:rgb(54,197,236);stop-opacity: 1"/>
</linearGradient>
<path style="stroke: none; stroke-width: 1; stroke-dasharray: none; stroke-linecap: butt; stroke-dashoffset: 0; stroke-linejoin: miter; stroke-miterlimit: 4; fill: url(#SVGID_5_222992); fill-rule: nonzero; opacity: 1;"  paint-order="stroke"  transform=" translate(-218.07750000000001, -113.80349999999996)" d="M 210.088 110.942 C 211.32 109.199 212.619 107.484 213.941 105.78599999999999 L 213.941 105.78599999999999 C 217.574 101.05499999999999 221.423 96.42899999999999 225.477 91.98199999999999 L 225.477 91.98199999999999 C 226.75300000000001 90.57299999999998 228.053 89.18699999999998 229.373 87.82199999999999 L 229.373 87.82199999999999 C 230.804 86.30299999999998 232.256 84.80599999999998 233.756 83.32999999999998 L 233.756 83.32999999999998 L 230.342 78.00299999999999 C 228.53500000000003 78.68399999999998 226.75300000000001 79.32199999999999 224.92700000000002 79.93999999999998 L 224.92700000000002 79.93999999999998 C 221.97700000000003 75.13699999999999 218.63000000000002 70.53799999999998 214.88700000000003 66.10899999999998 L 214.88700000000003 66.10899999999998 C 223.89300000000003 63.24899999999998 232.69800000000004 59.79099999999998 241.21800000000002 55.74099999999998 L 241.21800000000002 55.74099999999998 C 247.76000000000002 64.48299999999998 253.04500000000002 73.68499999999997 257.358 83.70199999999997 L 257.358 83.70199999999997 C 249.80700000000002 90.08799999999997 242.76 97.00399999999996 236.264 104.35699999999997 L 236.264 104.35699999999997 C 234.857 105.91999999999997 233.49200000000002 107.50699999999998 232.17000000000002 109.11299999999997 L 232.17000000000002 109.11299999999997 C 227.70000000000002 114.46299999999997 223.519 120.01199999999997 219.64100000000002 125.75899999999997 L 219.64100000000002 125.75899999999997 C 218.145 127.95999999999997 216.71400000000003 130.16099999999997 215.348 132.40699999999998 L 215.348 132.40699999999998 C 207.75300000000001 144.564 201.412 157.486 196.45600000000002 170.93899999999996 L 196.45600000000002 170.93899999999996 C 190.37800000000001 171.31299999999996 184.26100000000002 171.61999999999998 178.79700000000003 171.86599999999996 L 178.79700000000003 171.86599999999996 C 186.04300000000003 150.02199999999996 196.56800000000004 129.52399999999994 210.08800000000002 110.94199999999995" stroke-linecap="round" />
</g>
		<g transform="matrix(1.167891860536903 0 0 -1.167891860536903 -34.817192146326136 48.62692945124479)"  >
<linearGradient id="SVGID_6_222993" gradientUnits="userSpaceOnUse" gradientTransform="matrix(-176.4584 -176.4584 -176.4584 176.4584 257.08496 214.67529)"  x1="0" y1="0" x2="1" y2="0">
<stop offset="0%" style="stop-color:rgb(45,194,235);stop-opacity: 1"/>
<stop offset="100%" style="stop-color:rgb(54,197,236);stop-opacity: 1"/>
</linearGradient>
<path style="stroke: none; stroke-width: 1; stroke-dasharray: none; stroke-linecap: butt; stroke-dashoffset: 0; stroke-linejoin: miter; stroke-miterlimit: 4; fill: url(#SVGID_6_222993); fill-rule: nonzero; opacity: 1;"  paint-order="stroke"  transform=" translate(-131.8225, -87.184)" d="M 65.911 92.602 C 69.655 82.031 74.299 72.473 80.068 63.514 L 80.068 63.514 C 89.074 66.794 98.256 69.437 107.57 71.438 L 107.57 71.438 C 109.52999999999999 71.85900000000001 111.488 72.255 113.469 72.607 L 113.469 72.607 C 119.67899999999999 73.775 125.955 74.635 132.273 75.182 L 132.273 75.182 C 134.695 75.428 137.119 75.601 139.561 75.735 L 139.561 75.735 C 143.459 75.953 147.37900000000002 76.062 151.297 76.062 L 151.297 76.062 C 162.417 76.062 173.557 75.16 184.59 73.333 L 184.59 73.333 C 189.607 77.824 193.971 82.47 197.734 87.489 L 197.734 87.489 C 182.517 90.705 166.99800000000002 92.31400000000001 151.32 92.31400000000001 L 151.32 92.31400000000001 C 143.04 92.31400000000001 134.762 91.852 126.55 90.926 L 126.55 90.926 C 124.523 90.705 122.52 90.462 120.538 90.176 L 120.538 90.176 C 114.901 89.406 109.28699999999999 88.417 103.738 87.206 L 103.738 87.206 C 101.93299999999999 86.808 100.127 86.411 98.321 85.947 L 98.321 85.947 C 96.318 85.486 94.314 84.959 92.334 84.431 L 92.334 84.431 L 89.405 90.066 C 91.056 91.434 92.706 92.82000000000001 94.31400000000001 94.227 L 94.31400000000001 94.227 C 92.025 99.471 90.08800000000001 104.977 88.45800000000001 110.854 L 88.45800000000001 110.854 C 81.411 104.27 73.881 98.169 65.911 92.602" stroke-linecap="round" />
</g>
		<g transform="matrix(1.167891860536903 0 0 -1.167891860536903 -14.039228055514002 -48.98780803615068)"  >
<linearGradient id="SVGID_7_222994" gradientUnits="userSpaceOnUse" gradientTransform="matrix(-176.45799 -176.45799 -176.45799 176.45799 217.33398 254.42725)"  x1="0" y1="0" x2="1" y2="0">
<stop offset="0%" style="stop-color:rgb(45,194,235);stop-opacity: 1"/>
<stop offset="100%" style="stop-color:rgb(54,197,236);stop-opacity: 1"/>
</linearGradient>
<path style="stroke: none; stroke-width: 1; stroke-dasharray: none; stroke-linecap: butt; stroke-dashoffset: 0; stroke-linejoin: miter; stroke-miterlimit: 4; fill: url(#SVGID_7_222994); fill-rule: nonzero; opacity: 1;"  paint-order="stroke"  transform=" translate(-149.61350000000002, -170.766)" d="M 151.782 226.206 C 150.08700000000002 216.934 147.752 207.845 144.824 198.96699999999998 L 144.824 198.96699999999998 C 144.229 197.09799999999998 143.59 195.224 142.907 193.397 L 142.907 193.397 C 140.882 187.76 138.615 182.213 136.104 176.796 L 136.104 176.796 C 135.245 174.88299999999998 134.34500000000003 173.009 133.39600000000002 171.13899999999998 L 133.39600000000002 171.13899999999998 C 127.14500000000001 158.49999999999997 119.59100000000001 146.51899999999998 110.89400000000002 135.379 L 110.89400000000002 135.379 C 111.99400000000001 127.86999999999999 113.44900000000003 121.15499999999999 115.29800000000002 115.06099999999999 L 115.29800000000002 115.06099999999999 C 130.336 132.099 142.644 151.257 151.87 171.994 L 151.87 171.994 C 152.707 173.844 153.523 175.693 154.292 177.59 L 154.292 177.59 C 156.51500000000001 182.939 158.52 188.4 160.324 193.945 L 160.324 193.945 C 160.919 195.777 161.49200000000002 197.626 162.042 199.476 L 162.042 199.476 C 162.725 201.766 163.363 204.057 163.981 206.367 L 163.981 206.367 L 170.321 206.082 C 170.697 203.814 171.115 201.566 171.556 199.34199999999998 L 171.556 199.34199999999998 C 176.222 199.213 182.05700000000002 198.98999999999998 188.33300000000003 198.682 L 188.33300000000003 198.682 C 186.35000000000002 207.599 184.98700000000002 216.672 184.21600000000004 225.85299999999998 L 184.21600000000004 225.85299999999998 C 174.81300000000005 226.24699999999999 166.64600000000004 226.47099999999998 163.36300000000003 226.47099999999998 L 163.36300000000003 226.47099999999998 C 161.58000000000004 226.47099999999998 157.59400000000002 226.40399999999997 151.78200000000004 226.206" stroke-linecap="round" />
</g>
</g>
</g>
</svg>